<svg xmlns="http://www.w3.org/2000/svg" viewBox="0 0 184.63 44.69"><defs><style>.cls-1{fill:#fff;}.cls-2{fill:none;}</style></defs><title>Logo</title><g id="Capa_2" data-name="Capa 2"><g id="Capa_1-2" data-name="Capa 1"><path class="cls-1" d="M67.73,31.39v-18L71,11.91V31.39Z"/><path class="cls-1" d="M81,18.08q4.22,0,4.22,5.52v7.79H82V23.6q0-2.92-2.59-2.92t-2.6,2.92v7.79H73.58v-13h3.25v1.95C76.82,18.84,78.23,18.08,81,18.08Z"/><path class="cls-1" d="M96.3,18.4,95.65,21h-2.6V31.39H89.81V21h-2l-.65-2.6h2.6V15.29q0-4.22,4-3.57l2.46.44-.48,2.56q-2.76-.47-2.76,1.22V18.4Z"/><path class="cls-1" d="M104.09,31.71q-6.5,0-6.49-6.82t6.49-6.82q6.49,0,6.49,6.82T104.09,31.71Zm3.25-6.82q0-4.22-3.25-4.22t-3.25,4.22q0,4.22,3.25,4.22T107.34,24.9Z"/><path class="cls-1" d="M112.53,31.39V11.91h11.69L123,14.51h-7.27v5.84h5.84l-1.12,2.6h-4.73v6.39Z"/><path class="cls-1" d="M129.2,18.08q5.19,0,5.19,6.82v6.49h-3.25V30q-.46,1.46-3.63,1.73-4.55,0-4.55-4.35t6.12-4.61a9.34,9.34,0,0,1,2.26.26q-.39-2.47-2.14-2.34a4.39,4.39,0,0,0-3.64,1.63L123.75,20A7.39,7.39,0,0,1,129.2,18.08Zm-3.25,9c0,1.35.9,2,2.69,2s2.68-1.18,2.66-3.6l-1.7-.19Q126,25.09,126,27.1Z"/><path class="cls-1" d="M142.84,31.71q-6.49,0-6.49-6.82t6.49-6.82q4.09,0,5.07,3l.31.74-2.62,1.43-.29-.54a2.42,2.42,0,0,0-2.47-2q-3.25,0-3.24,4.22t3.24,4.22a2.75,2.75,0,0,0,2.47-2l.29-.54L148.21,28l-.31.74A5.21,5.21,0,0,1,142.84,31.71Z"/><path class="cls-1" d="M155.69,21v6.49q0,1.69,2.77,1.22l.48,2.56-2.47.44q-4,.65-4-3.57V21H150.5l-.65-2.6h2.6V13.53l3.25-.65V18.4h3.25l-.65,2.6Z"/><path class="cls-1" d="M166.72,31.71q-6.49,0-6.49-6.82t6.49-6.82q6.5,0,6.5,6.82T166.72,31.71ZM170,24.9q0-4.22-3.25-4.22t-3.25,4.22q0,4.22,3.25,4.22T170,24.9Z"/><path class="cls-1" d="M178.41,31.39h-3.25v-13h3.25v1.95A2.88,2.88,0,0,1,181.26,18a5.77,5.77,0,0,1,3.31.87l-1.09,2.43a4.48,4.48,0,0,0-2.47-.65c-1.74,0-2.6,1-2.6,2.92Z"/><path class="cls-1" d="M67.67,40.62h4v.51h-4V44.3h-.54v-7h4.71v.54H67.67Z"/><path class="cls-1" d="M78.41,39.35v4.94h-.49v-1a2.32,2.32,0,0,1-2,1.13,2.54,2.54,0,0,1,0-5.08,2.23,2.23,0,0,1,2,1.14V39.35Zm-2.51.41a2.07,2.07,0,0,0,0,4.13A2.07,2.07,0,0,0,75.9,39.76Zm.17-1.29L77,37.24h-.65l-.75,1.2v0Z"/><path class="cls-1" d="M80.83,37.29v3.15a2.18,2.18,0,0,1,2-1.16,2.55,2.55,0,0,1,0,5.11,2.33,2.33,0,0,1-2.06-1.17v1.09h-.48v-7Zm0,4.53a2,2,0,0,0,2,2.08,2.08,2.08,0,0,0,0-4.16A2,2,0,0,0,80.84,41.81Z"/><path class="cls-1" d="M87.73,39.35l0,.88a1.74,1.74,0,0,1,1.64-.93,2,2,0,0,1,1.06.29l-.22.4a1.57,1.57,0,0,0-.84-.23,1.64,1.64,0,0,0-1.63,1.65v2.88h-.49V39.35Z"/><path class="cls-1" d="M92.56,37.73a.4.4,0,0,1-.79,0A.4.4,0,0,1,92.56,37.73Zm-.65,1.6v5h.49v-5Z"/><path class="cls-1" d="M98.56,43.6a2.51,2.51,0,0,1-1.8.74,2.52,2.52,0,1,1,0-5,2.57,2.57,0,0,1,1.8.74l-.32.31a2.09,2.09,0,0,0-1.48-.59,2.06,2.06,0,1,0,0,4.12,2.1,2.1,0,0,0,1.47-.61Z"/><path class="cls-1" d="M105,39.35v4.94h-.49v-1a2.32,2.32,0,0,1-2,1.13,2.54,2.54,0,0,1,0-5.08,2.24,2.24,0,0,1,2,1.14V39.35Zm-4.53,2.47a2,2,0,0,0,2,2.07,2.07,2.07,0,0,0,0-4.13A2,2,0,0,0,100.49,41.82Z"/><path class="cls-1" d="M115.27,37.29v7h-.48V43.2a2.32,2.32,0,0,1-2.06,1.17,2.55,2.55,0,0,1,0-5.11,2.18,2.18,0,0,1,2.05,1.16V37.29Zm-4.53,4.53a1.92,1.92,0,0,0,2,2.07,2.08,2.08,0,0,0,0-4.16A1.92,1.92,0,0,0,110.73,41.82Z"/><path class="cls-1" d="M117.22,41.82a2.48,2.48,0,0,1,2.51-2.55,2.31,2.31,0,0,1,2.45,2.78h-4.45a1.94,1.94,0,0,0,2,1.83,2.31,2.31,0,0,0,1.78-.75l.35.28a2.73,2.73,0,0,1-2.14,1A2.42,2.42,0,0,1,117.22,41.82Zm4.52-.2a1.82,1.82,0,0,0-2-1.9,2,2,0,0,0-2,1.9Z"/><path class="cls-1" d="M132.25,38.64a2.25,2.25,0,0,0-2.12-1c-.82,0-2.12.3-2.12,1.42,0,.89,1,1.1,2.14,1.32,1.35.26,2.75.5,2.75,2s-1.6,2-2.77,2a3.15,3.15,0,0,1-2.87-1.52l.48-.24a2.75,2.75,0,0,0,2.39,1.27c.86,0,2.23-.24,2.23-1.48,0-1-1.15-1.28-2.3-1.5s-2.59-.51-2.59-1.8c0-1.48,1.51-1.94,2.66-1.94a2.69,2.69,0,0,1,2.56,1.19Z"/><path class="cls-1" d="M134.63,41.83a2.51,2.51,0,1,1,5,0,2.51,2.51,0,1,1-5,0Zm4.54,0a2,2,0,1,0-4.06,0,2,2,0,1,0,4.06,0Z"/><path class="cls-1" d="M142,37.29v7h-.49v-7Z"/><path class="cls-1" d="M148,44.29V43.4a2,2,0,0,1-1.76,1,2.06,2.06,0,0,1-2.23-2.18V39.34h.49v2.84a1.59,1.59,0,0,0,1.76,1.71,1.72,1.72,0,0,0,1.73-1.8V39.34h.49v5Z"/><path class="cls-1" d="M154.58,43.6a2.52,2.52,0,0,1-1.8.74,2.52,2.52,0,1,1,0-5,2.58,2.58,0,0,1,1.8.74l-.32.31a2.09,2.09,0,0,0-1.48-.59,2.06,2.06,0,1,0,0,4.12,2.1,2.1,0,0,0,1.47-.61Z"/><path class="cls-1" d="M156.94,37.73a.39.39,0,0,1-.79,0A.39.39,0,0,1,156.94,37.73Zm-.65,1.6v5h.49v-5Z"/><path class="cls-1" d="M158.77,41.83a2.51,2.51,0,1,1,5,0,2.51,2.51,0,1,1-5,0Zm4.54,0a2,2,0,1,0-4.06,0,2,2,0,1,0,4.06,0Z"/><path class="cls-1" d="M166.12,39.35v.88a2,2,0,0,1,1.76-1,2.06,2.06,0,0,1,2.23,2.18v2.85h-.49V41.45a1.58,1.58,0,0,0-1.76-1.71,1.72,1.72,0,0,0-1.73,1.8v2.75h-.49V39.35Z"/><path class="cls-1" d="M171.82,41.82a2.49,2.49,0,0,1,2.51-2.55,2.31,2.31,0,0,1,2.45,2.78h-4.45a1.94,1.94,0,0,0,2,1.83,2.32,2.32,0,0,0,1.78-.75l.35.28a2.72,2.72,0,0,1-2.13,1A2.42,2.42,0,0,1,171.82,41.82Zm4.52-.2a1.82,1.82,0,0,0-2-1.9,2,2,0,0,0-2,1.9Z"/><path class="cls-1" d="M182.15,40.25a2.11,2.11,0,0,0-1.54-.52c-.77,0-1.51.28-1.49.91s.88.79,1.5.9c.88.15,2.09.3,2,1.45s-1.16,1.38-2,1.38a2.55,2.55,0,0,1-2.16-1l.36-.32a2.2,2.2,0,0,0,1.81.84c.6,0,1.51-.16,1.54-.94s-.8-.85-1.61-1-1.91-.34-1.92-1.33,1-1.39,2-1.38a2.58,2.58,0,0,1,1.84.66Z"/><rect class="cls-1" x="65.99" y="34.11" width="118.64" height="0.44"/><path class="cls-1" d="M44.89,15.63a1.3,1.3,0,0,1-.7-.21l-5.77-3.79a1.27,1.27,0,0,1-.57-1.06V4.15a4.15,4.15,0,0,1,8.3,0V14.37a1.25,1.25,0,0,1-.66,1.11A1.29,1.29,0,0,1,44.89,15.63ZM40.38,9.9,43.62,12V4.15a1.62,1.62,0,1,0-3.24,0Z"/><path class="cls-1" d="M51.36,19.94a1,1,0,0,1-.57-.18l-3.47-2.49a1,1,0,0,1-.41-.79V13.84a.91.91,0,0,1,0-.15,2.7,2.7,0,0,1,5.4.13v.08h0V19a1,1,0,0,1-1,1Zm-2.5-4,1.53,1.1V13.92a.77.77,0,0,0-1.53,0V16Z"/><path class="cls-1" d="M55.84,36.36H46a.86.86,0,0,1-.75-1.29l4.9-8.49a.86.86,0,0,1,1.49,0L56.54,35a.86.86,0,0,1-.7,1.36Zm-8.31-1.72h6.82l-3.41-5.91Z"/><path class="cls-2" d="M49.62,31V24.6a2.4,2.4,0,0,0-1.06-1.89l0,0L35.4,13.91v7.37a1.26,1.26,0,0,1-1.95,1.06L23.68,16,20.4,13.83v1.08a1.19,1.19,0,0,1,0,.14v6.24a1.26,1.26,0,0,1-2,1.06L3.73,12.85a2.2,2.2,0,0,0-.93-.35h0a2.19,2.19,0,0,0-.19,1.12v9c0,.16-.06,15.68-.06,18a1.43,1.43,0,0,0,1.14,1.47H48.49a.93.93,0,0,0,1.13-1,.67.67,0,0,1,0-.08V34.64H47.53Z"/><path class="cls-1" d="M52.15,34.64H49.62V41a.67.67,0,0,0,0,.08.93.93,0,0,1-1.13,1H3.67a1.43,1.43,0,0,1-1.14-1.47c0-2.33.06-17.85.06-18v-9a2.19,2.19,0,0,1,.19-1.12h0a2.2,2.2,0,0,1,.93.35l14.71,9.49a1.26,1.26,0,0,0,2-1.06V15a1.19,1.19,0,0,0,0-.14V13.83L23.68,16l9.78,6.33a1.26,1.26,0,0,0,1.95-1.06V13.91l13.12,8.78,0,0a2.4,2.4,0,0,1,1.06,1.89V31l1.32-2.28,1.21,2.1V24.6a4.91,4.91,0,0,0-2.24-4L36.58,11.65a3.54,3.54,0,0,0-1.88-.72A1.85,1.85,0,0,0,32.88,13v6L25.06,13.9l-3.48-2.32a3.54,3.54,0,0,0-1.89-.73,1.85,1.85,0,0,0-1.83,2.08v1.85a.68.68,0,0,0,0,.14v4L5.12,10.73A4.58,4.58,0,0,0,2.8,10c-.65,0-2.74.26-2.74,3.66v9c0,.16-.06,15.68-.06,18a4,4,0,0,0,3.33,4l.2,0h45a3.57,3.57,0,0,0,2.75-1.08A3.75,3.75,0,0,0,52.15,41Z"/><polygon class="cls-2" points="54.34 34.64 52.15 30.84 52.15 34.64 54.34 34.64"/><polygon class="cls-2" points="47.53 34.64 49.62 34.64 49.62 31.02 47.53 34.64"/></g></g></svg>