<svg xmlns="http://www.w3.org/2000/svg" viewBox="0 0 11.37 11.39"><defs><style>.cls-1{fill:#293661;}</style></defs><title>Recurso 12</title><g id="Capa_2" data-name="Capa 2"><g id="Capa_1-2" data-name="Capa 1"><path class="cls-1" d="M.39,1.13c-.41.51-1.32,3,2.6,7,4.13,4.23,6.79,3.33,7.25,2.85L7.48,8.2c-.38.38-.88,0-1.84-.73a14.43,14.43,0,0,1-2-2C3.22,4.93,2.82,4.36,3.23,4L.39,1.13Z"/><path class="cls-1" d="M11.24,10a.44.44,0,0,0,0-.62h0L9.08,7.21a.43.43,0,0,0-.62,0L7.69,8l2.77,2.77.78-.78Z"/><path class="cls-1" d="M4.22,3a.43.43,0,0,0,0-.62h0L2,.13a.43.43,0,0,0-.62,0L.61.91,3.44,3.74,4.22,3Z"/></g></g></svg>