<svg xmlns="http://www.w3.org/2000/svg" viewBox="0 0 115.14 93.55"><defs><style>.cls-1{isolation:isolate;}.cls-2{fill:#fff;opacity:0.1;}.cls-3{fill:none;}.cls-4{fill:#b7e5f3;}.cls-5{fill:#01aced;}.cls-6{fill:#293661;mix-blend-mode:multiply;}</style></defs><title>Recurso 5_1</title><g class="cls-1"><g id="Capa_2" data-name="Capa 2"><g id="Capa_1-2" data-name="Capa 1"><path class="cls-2" d="M31.48,39.77a8.28,8.28,0,0,1-4.94-14.94l-14.14-14c-1.2,0,.62.5-.23,1.35a4.66,4.66,0,0,0,0,6.59l3,3-.68,1.39a22.84,22.84,0,0,0-.83,2.2L13.1,27H9a4.33,4.33,0,1,0,0,8.63h3.95l.48,1.59a19.5,19.5,0,0,0,.84,2.19l.63,1.39-2.7,2.72a4.66,4.66,0,0,0,6.59,6.6l2.53-2.53,1.4.73a22.67,22.67,0,0,0,2.62,1l1.7.51v3.44a4.33,4.33,0,1,0,8.63,0V50l1.57-.48a19.59,19.59,0,0,0,2.6-1l1.4-.68L43.5,50.1a4.64,4.64,0,0,0,3.3,1.37c.33,0,5,0,5.35-.1L36.25,35.45C34.8,36.71,33.54,39.77,31.48,39.77Z"/><path class="cls-3" d="M51.46,46.81a4.63,4.63,0,0,0-1.36-3.3l-2.27-2.27.68-1.39a20.18,20.18,0,0,0,1-2.65L50,35.61h3.27a4.33,4.33,0,1,0,0-8.63H49.85l-.51-1.68a20.79,20.79,0,0,0-1-2.48l-.73-1.47,2.53-2.56a4.67,4.67,0,1,0-6.59-6.62l-2.71,2.7-1.37-.63a20.13,20.13,0,0,0-2.22-.84l-1.57-.48V9A4.33,4.33,0,1,0,27,9V13.1l-1.7.51a21.2,21.2,0,0,0-2.08.83l-1.45.68-3-3a4.67,4.67,0,0,0-3.31-1.37h-.13l11.2,14A8.28,8.28,0,0,1,36.88,37.75L47.76,51.36a4.65,4.65,0,0,0,3.7-4.56Z"/><path class="cls-3" d="M35.45,31.48a4,4,0,0,0-6.22-3.28l4.95,6.18A4,4,0,0,0,35.45,31.48Z"/><path class="cls-4" d="M27.5,31.48a4,4,0,0,0,6.68,2.9l-4.95-6.18A4,4,0,0,0,27.5,31.48Z"/><path class="cls-5" d="M53.29,39.93a8.64,8.64,0,1,0,0-17.26h-.46s0-.26,0-.27l.33-.45a9.09,9.09,0,0,0,0-12.79A8.94,8.94,0,0,0,46.8,6.51a9.08,9.08,0,0,0-6.42,2.62L40,9.47V9A8.64,8.64,0,1,0,22.7,9v.49l-.62-.35A9.23,9.23,0,0,0,15.6,6.49a9.33,9.33,0,0,0-3.2.57l3,3.76h.09a4.63,4.63,0,0,1,3.29,1.37l3,3,1.39-.68a23.67,23.67,0,0,1,2.22-.83L27,13.1V9a4.33,4.33,0,1,1,8.63,0v3.95l1.57.48a19.31,19.31,0,0,1,2.18.84l1.38.63,2.71-2.7a4.66,4.66,0,1,1,6.6,6.59l-2.52,2.53.73,1.4a22.62,22.62,0,0,1,1,2.61L49.85,27h3.44a4.33,4.33,0,1,1,0,8.63H50l-.48,1.59a19.58,19.58,0,0,1-1,2.61l-.68,1.41L50.1,43.5a4.66,4.66,0,0,1-2.34,7.86l2.85,3.56a9,9,0,0,0,2.54-14.47L53,40.24c0-.07.06-.32.09-.32Z"/><path class="cls-5" d="M46.8,51.46a4.62,4.62,0,0,1-3.29-1.37l-2.27-2.27-1.39.68a20.07,20.07,0,0,1-2.63,1L35.65,50v3.26a4.33,4.33,0,1,1-8.63,0V49.85l-1.7-.51a20.73,20.73,0,0,1-2.49-1l-1.47-.73L18.79,50.1a4.67,4.67,0,1,1-6.62-6.59l2.7-2.7-.63-1.37a20.23,20.23,0,0,1-.84-2.24l-.48-1.59H9A4.33,4.33,0,1,1,9,27H13.1l.51-1.68a20.67,20.67,0,0,1,.83-2.07l.68-1.45-3-3a4.66,4.66,0,0,1,3.17-8l-3-3.76a8.95,8.95,0,0,0-5.84,8.4,9.5,9.5,0,0,0,2.63,6.6l.35.6H9A8.64,8.64,0,1,0,9,39.93h.49l-.35.44a9.06,9.06,0,0,0,0,12.76,9,9,0,0,0,12.69,0l.6-.33h.29v.46a8.64,8.64,0,1,0,17.26,0v-.18s.22-.06.29-.09l.16.12A9,9,0,0,0,50.6,54.92l-2.84-3.56A4.74,4.74,0,0,1,46.8,51.46Z"/><circle class="cls-6" cx="31.06" cy="31.82" r="5.2"/><path class="cls-5" d="M31.48,23.18a8.29,8.29,0,1,0,8.29,8.29A8.24,8.24,0,0,0,31.48,23.18Zm2.7,11.19a4,4,0,1,1,1.27-2.9A3.95,3.95,0,0,1,34.18,34.38Z"/><path class="cls-2" d="M77.65,56.56a8.28,8.28,0,0,1,14.06,7.08l19.91-.1c.82-.87-.8.09-.8-1.12a4.07,4.07,0,0,0-1.37-3,4.42,4.42,0,0,0-3.3-1.12H102l-.5-1.72a22.52,22.52,0,0,0-.86-2.15l-.72-1.5,2.92-2.95a4.34,4.34,0,1,0-6.1-6.13l-2.79,2.79-1.58-.9a20.83,20.83,0,0,0-2.2-1l-1.46-.56,0-3.84a4.67,4.67,0,0,0-8-3.31,4.62,4.62,0,0,0-1.37,3.29v3.57l-1.51.47a20.11,20.11,0,0,0-2.46,1L73.93,46l-2.44-2.43a4.33,4.33,0,1,0-6.1,6.1L67.7,52l-.89,1.57a20.82,20.82,0,0,0-1.16,2.63l-.54,1.51-3.23,0a4.66,4.66,0,0,0-3.31,1.38c-.23.23-3.54,3.59-3.72,3.86H77.33C77.47,61.07,76.2,58,77.65,56.56Z"/><path class="cls-3" d="M58.55,65.62a4.54,4.54,0,0,0,3.3,1.28h3.21l.5,1.56a23.05,23.05,0,0,0,1.25,2.76l.89,1.6-2.31,2.32a4.33,4.33,0,1,0,6.1,6.11l2.43-2.43,1.44.72a19.62,19.62,0,0,0,2.43,1l1.53.49v3.58A4.67,4.67,0,0,0,84,89.24a4.47,4.47,0,0,0,3.22-1.37,4.56,4.56,0,0,0,1.29-3.29V80.76L90,80.24a23.38,23.38,0,0,0,2.32-1.1l1.59-.9L96.72,81a4.33,4.33,0,1,0,6.11-6.1L99.91,72l.71-1.44a19.73,19.73,0,0,0,.83-2L102,67.1h4.18a4.64,4.64,0,0,0,3.3-1.37l.08-.1-17.82-2a8.28,8.28,0,0,1-16.45-1.83L57.94,59.88a4.52,4.52,0,0,0,.61,5.74Z"/><path class="cls-3" d="M80.71,65.24a4,4,0,0,0,6.72-2.08l-7.87-.87A4,4,0,0,0,80.71,65.24Z"/><path class="cls-4" d="M86.33,59.61a4,4,0,0,0-6.77,2.67l7.87.87A4,4,0,0,0,86.33,59.61Z"/><path class="cls-5" d="M62.34,72.1A8.64,8.64,0,1,0,74.54,84.3l.33-.33.09.07,0,.5a9,9,0,0,0,15.35,6.37,9.5,9.5,0,0,0,2.81-6.52l.18-.66.35.35a8.64,8.64,0,1,0,12.21-12.21l-.35-.35.56-.07a9.07,9.07,0,0,0,8.21-5.3l-4.78-.54-.07.08a4.63,4.63,0,0,1-3.3,1.37H102l-.5,1.47a20.27,20.27,0,0,1-.86,2L99.92,72l2.91,2.92a4.33,4.33,0,1,1-6.1,6.1l-2.79-2.79-1.58.9a20.53,20.53,0,0,1-2.2,1l-1.46.56,0,3.85A4.69,4.69,0,0,1,84,89.24a4,4,0,0,1-3-1.36,4.4,4.4,0,0,1-1.1-3.29V81l-1.78-.47a22.29,22.29,0,0,1-2.6-1L74,78.82l-2.47,2.43a4.34,4.34,0,1,1-6.13-6.1l2.3-2.31-.9-1.58a20.64,20.64,0,0,1-1.17-2.63l-.54-1.51-3.23,0a4.68,4.68,0,0,1-3.92-7.22l-4.53-.5a9,9,0,0,0,8.43,12l.35.18c0,.07.29.38.27.4Z"/><path class="cls-5" d="M58.55,59.38a4.41,4.41,0,0,1,3.3-1.11h3.21l.5-1.72a24.19,24.19,0,0,1,1.25-2.85l.89-1.64-2.31-2.34a4.34,4.34,0,1,1,6.1-6.13L73.93,46l1.44-.72a19.47,19.47,0,0,1,2.43-1l1.53-.49V40.27a4.66,4.66,0,1,1,9.33,0v3.82l1.41.52a22.76,22.76,0,0,1,2.29,1.1l1.58.89,2.79-2.79a4.33,4.33,0,1,1,6.1,6.1l-2.92,2.92.72,1.44a19.48,19.48,0,0,1,.82,2l.51,1.48h4.19a4.65,4.65,0,0,1,3.38,7.86l4.78.53a8.94,8.94,0,0,0-1.81-10.07,9.13,9.13,0,0,0-6.41-2.7l-.56-.07.35-.35A8.64,8.64,0,1,0,93.68,40.76l-.35.35-.18-.66A9.21,9.21,0,0,0,90.44,34,9.06,9.06,0,0,0,84,31.33a9,9,0,0,0-9,8.94L75,40.8l-.09.07-.33-.33A8.64,8.64,0,1,0,62.34,52.75l.13.13s-.24.32-.27.4l-.26.09a9.1,9.1,0,0,0-8.5,6L58,60A3.82,3.82,0,0,1,58.55,59.38Z"/><circle class="cls-6" cx="83.57" cy="61.88" r="5.2" transform="translate(-19.28 77.22) rotate(-45)"/><path class="cls-5" d="M89.38,68.29a8.29,8.29,0,1,0-11.73,0A8.24,8.24,0,0,0,89.38,68.29Zm-9.83-6a4,4,0,1,1,1.15,3A3.95,3.95,0,0,1,79.56,62.28Z"/></g></g></g></svg>