<svg xmlns="http://www.w3.org/2000/svg" viewBox="0 0 19.06 19.04"><defs><style>.cls-1{opacity:0.5;}.cls-2{fill:#fff;}</style></defs><title>Recurso 6_1</title><g id="Capa_2" data-name="Capa 2"><g id="Capa_1-2" data-name="Capa 1"><g class="cls-1"><path class="cls-2" d="M9.51,0A4.5,4.5,0,0,0,5.56,2.56a7,7,0,0,0-.84,2.35.3.3,0,0,0-.15,0c-.42.14-.52.93-.25,1.76A2.35,2.35,0,0,0,5,7.76a5.93,5.93,0,0,0,2.13,3.32V12.7H6.36c0,1.31,1.42,2.38,3.17,2.38S12.7,14,12.7,12.7h-.79V11.09A6,6,0,0,0,14,7.76a2.35,2.35,0,0,0,.69-1.09c.27-.83.17-1.62-.25-1.76a.42.42,0,0,0-.2,0,7,7,0,0,0-.84-2.35A4.65,4.65,0,0,0,10,0L9.58,0ZM4.84,4.91a.05.05,0,0,0,0,0H4.79Zm8.63,8.16c-.17,1.56-1.86,2.8-3.94,2.8S5.74,14.6,5.59,13.09C4,13.84,2.46,14.58.9,15.4A2.09,2.09,0,0,0,0,17.46c0,.48-.15,1.12.35,1.44s1,.07,1.51.15H18.33A1,1,0,0,0,19,17.85a2.68,2.68,0,0,0-.52-2.13,7.07,7.07,0,0,0-1.71-1c-1.11-.52-2.23-1.08-3.35-1.61Z"/></g></g></g></svg>