<svg xmlns="http://www.w3.org/2000/svg" viewBox="0 0 254.85 58.15"><defs><style>.cls-1{fill:#fff;}</style></defs><title>imagen-2</title><g id="Capa_2" data-name="Capa 2"><g id="Capa_1-2" data-name="Capa 1"><g id="Page-1"><g id="xamarin-logo"><path id="Logo" class="cls-1" d="M102.13,45.51,95.53,32.86,88.79,45.51H81.54L91.82,29.19,82.57,13h7.35l6,12.33L102.43,13h6.72l-9.5,16.12,9.65,16.42Zm23.5,0V42h-.1a8.54,8.54,0,0,1-7.6,4.17,8.35,8.35,0,0,1-6-2.06,7.35,7.35,0,0,1-2.18-5.58q0-7.49,8.4-8.52l7.5-1q0-5.25-4.87-5.25a14.07,14.07,0,0,0-8.53,2.86V21.44a16.1,16.1,0,0,1,4.16-1.58,20.11,20.11,0,0,1,5-.7q9.93,0,9.93,10v16.3h-5.72Zm-5.49-11.78A6.73,6.73,0,0,0,116.5,35a3.71,3.71,0,0,0-1,2.89,3.34,3.34,0,0,0,1.18,2.64,4.59,4.59,0,0,0,3.09,1A5.61,5.61,0,0,0,124,39.76a6.23,6.23,0,0,0,1.68-4.45V33l-5.54.73Zm48.2,11.78V31a9.93,9.93,0,0,0-1.13-5.33q-1.1-1.76-4-1.76A4.63,4.63,0,0,0,159.41,26a8.21,8.21,0,0,0-1.56,5V45.51h-5.79v-15q0-6.58-5-6.58a4.71,4.71,0,0,0-3.89,2,8.34,8.34,0,0,0-1.51,5.18V45.51h-5.79V19.78h5.79v4h.1a8.94,8.94,0,0,1,8.13-4.6,7.73,7.73,0,0,1,4.52,1.36,7,7,0,0,1,2.78,3.69,9.41,9.41,0,0,1,8.63-5q8.38,0,8.38,10.45v15.9Zm25.08,0V42h-.1a8.54,8.54,0,0,1-7.6,4.17,8.35,8.35,0,0,1-6-2.06,7.35,7.35,0,0,1-2.18-5.58q0-7.49,8.4-8.52l7.5-1q0-5.25-4.87-5.25a14.07,14.07,0,0,0-8.53,2.86V21.44a16.1,16.1,0,0,1,4.16-1.58,20.11,20.11,0,0,1,5-.7q9.93,0,9.93,10v16.3h-5.72Zm-5.49-11.78A6.73,6.73,0,0,0,184.29,35a3.71,3.71,0,0,0-1,2.89,3.34,3.34,0,0,0,1.18,2.64,4.59,4.59,0,0,0,3.09,1,5.61,5.61,0,0,0,4.26-1.78,6.23,6.23,0,0,0,1.68-4.45V33l-5.54.73Zm30.62-8.29a6.29,6.29,0,0,0-3.36-.88,4.85,4.85,0,0,0-4.09,2.16,9.41,9.41,0,0,0-1.56,5.63V45.51h-5.79V19.78h5.79v5h.1q1.86-5.45,6.57-5.45a6,6,0,0,1,2.33.35v5.75ZM224.32,14a3.55,3.55,0,0,1-2.51-1,3.17,3.17,0,0,1-1-2.39,3.23,3.23,0,0,1,1-2.44,3.7,3.7,0,0,1,5,0,3.2,3.2,0,0,1,1,2.41,3.17,3.17,0,0,1-1,2.39A3.58,3.58,0,0,1,224.32,14Zm-3,31.48V19.78h5.79V45.51Zm27.7,0V31.06q0-7.16-5.14-7.16a5.57,5.57,0,0,0-4.34,2,7.27,7.27,0,0,0-1.73,5V45.51H232V19.78h5.79V23.9h.1a9.09,9.09,0,0,1,8.33-4.75q8.58,0,8.58,10.55v15.8h-5.79ZM18.81,0a5.17,5.17,0,0,0-4.37,2.53L.65,26.54a5.23,5.23,0,0,0,0,5.07l13.78,24a5.17,5.17,0,0,0,4.37,2.53H46.37a5.17,5.17,0,0,0,4.37-2.53l13.78-24a5.23,5.23,0,0,0,0-5.07l-13.78-24A5.17,5.17,0,0,0,46.37,0Zm.25,14h4.87a.63.63,0,0,1,.52.31l8.07,14.41a.62.62,0,0,1,.08.23.62.62,0,0,1,.08-.23l8-14.41a.63.63,0,0,1,.54-.31H46a.65.65,0,0,1,.54.91L38.67,29.07l7.87,14.1a.65.65,0,0,1-.54.93H41.25a.63.63,0,0,1-.54-.33l-8-14.41a.62.62,0,0,1-.08-.23.62.62,0,0,1-.08.23L24.44,43.77a.63.63,0,0,1-.52.33H19.17a.65.65,0,0,1-.54-.93l7.87-14.1L18.63,15a.65.65,0,0,1,.42-.91Z"/></g></g></g></g></svg>