<svg xmlns="http://www.w3.org/2000/svg" viewBox="0 0 121.68 30.48"><defs><style>.cls-1{fill:#0069aa;}.cls-2{fill:#73706f;}</style></defs><title>Recurso 9</title><g id="Capa_2" data-name="Capa 2"><g id="Capa_1-2" data-name="Capa 1"><path class="cls-1" d="M99.74,0a70.58,70.58,0,0,1,10.41,2.63A31.34,31.34,0,0,1,117.32,6a11.29,11.29,0,0,1,3.51,3.39,5.26,5.26,0,0,1,.85,2.86,5.77,5.77,0,0,1-1,3.1A13.58,13.58,0,0,1,116.92,19a36.25,36.25,0,0,1-7.5,3.87A76.86,76.86,0,0,1,99.59,26c-2.94.74-5.91,1.37-8.91,1.87-1.83.3-3.66.59-5.5.86q-2.28.34-4.57.61c-1.28.15-2.57.27-3.86.38L72.43,30c-1.18.1-2.36.17-3.54.25L66,30.48c1.91-.34,3.78-.66,5.66-1C74,29,76.4,28.6,78.78,28.09c2.83-.6,5.65-1.22,8.46-1.91a107.75,107.75,0,0,0,14.32-4.38,35.09,35.09,0,0,0,7.84-4.07,10.79,10.79,0,0,0,3-3.08,5.17,5.17,0,0,0,.79-2.59,5.42,5.42,0,0,0-.71-2.72,12.28,12.28,0,0,0-3.05-3.53,38.69,38.69,0,0,0-7.1-4.52C101.48.85,100.61.43,99.74,0Z"/><path d="M92.42,3.74c-.53,0-1-.08-1.47-.08a1.06,1.06,0,0,0-1.2,1.08c0,.28,0,.56,0,.86l.24,0h3.28c.23,0,.3-.07.3-.3q0-.86,0-1.73a.41.41,0,0,1,.18-.3c1.42-.74,2.85-1.47,4.28-2.2l.12,0c0,.12,0,.22,0,.33,0,1.3,0,2.6,0,3.9,0,.28.09.35.35.34.62,0,1.24,0,1.86,0h.35V9H98.17c0,.12,0,.22,0,.33,0,1.3,0,2.6,0,3.9a6.37,6.37,0,0,0,.06.8.83.83,0,0,0,1,.7c.43-.06.87-.16,1.31-.24.1,1,.21,1.92.32,2.89,0,.18,0,.25-.22.29a14.33,14.33,0,0,1-3.65.3,6.09,6.09,0,0,1-1.3-.21,2.68,2.68,0,0,1-2-2.42A18.71,18.71,0,0,1,93.56,13c0-1.22,0-2.43,0-3.65V9H89.73v8.68H85.1V9H83.38V5.62h1.68c0-.53,0-1,.1-1.53a6.47,6.47,0,0,1,.22-1.18A3,3,0,0,1,88.06.82a16,16,0,0,1,4.06.1l.79.09Z"/><path class="cls-2" d="M35.94,6.82c0-.2,0-.34,0-.48q0-2.44,0-4.88C36,1,36,1,36.39,1h3.83c.26,0,.34.07.33.33q0,8,0,16c0,.23-.06.32-.31.32-1.22,0-2.43,0-3.65,0-.21,0-.29-.06-.28-.28,0-.39,0-.78,0-1.17,0-.1,0-.19,0-.38-.16.18-.28.29-.38.41A4.65,4.65,0,0,1,28,15a8.85,8.85,0,0,1-.63-4.58,6.1,6.1,0,0,1,1-2.92A4.57,4.57,0,0,1,31.86,5.4a4.72,4.72,0,0,1,3.93,1.31Zm-4.11,4.82c.06.48.09.9.18,1.31a2,2,0,0,0,1.8,1.68,2,2,0,0,0,2-1.55,4.47,4.47,0,0,0,.16-.84,4,4,0,0,0-.41-2.51,1.9,1.9,0,0,0-2.05-.94,1.73,1.73,0,0,0-1.44,1.4A14.6,14.6,0,0,0,31.83,11.64Z"/><path class="cls-2" d="M0,9.34C0,6.7,0,4,0,1.4,0,1.1.08,1,.38,1q6,0,11.94,0c.32,0,.4.1.39.4q0,1.36,0,2.72c0,.31-.08.41-.4.4-2.24,0-4.47,0-6.71,0-.49,0-.49,0-.49.5q0,1.05,0,2.1c0,.42,0,.43.44.43h5.63c.41,0,.41,0,.41.4,0,.84,0,1.67,0,2.5,0,.3-.1.36-.37.36H5.57c-.45,0-.45,0-.45.47,0,2,0,4,0,6,0,.3-.06.41-.39.41-1.45,0-2.91,0-4.36,0-.29,0-.37-.07-.37-.36C0,14.66,0,12,0,9.34Z"/><path class="cls-2" d="M26.42,14.65a6.79,6.79,0,0,1-1.56,1.9,5.56,5.56,0,0,1-3.1,1.24,19.64,19.64,0,0,1-2.62.12,6.71,6.71,0,0,1-3.57-.9,5.79,5.79,0,0,1-2.65-4.13,6.82,6.82,0,0,1,.5-4.09,5.64,5.64,0,0,1,4-3.18,10.09,10.09,0,0,1,5.39.19,5.24,5.24,0,0,1,3.72,4.32c.14.75.13,1.53.2,2.3,0,.27-.09.33-.34.33h-8.5c-.46,0-.46,0-.39.45a2.24,2.24,0,0,0,2.15,2.09,2.35,2.35,0,0,0,2.11-.87.55.55,0,0,1,.56-.21l2.39.23,1.56.14S26.36,14.62,26.42,14.65Zm-4.33-4.06c0-1.71-1-2.69-2.51-2.56a2.36,2.36,0,0,0-2.07,2.56Z"/><path class="cls-2" d="M55.46,14.61a6.73,6.73,0,0,1-1.86,2.15,5.62,5.62,0,0,1-2.83,1,20.17,20.17,0,0,1-2.62.12A6.7,6.7,0,0,1,44.6,17a5.8,5.8,0,0,1-2.67-4.11A6.9,6.9,0,0,1,42.3,9.1a5.63,5.63,0,0,1,4.12-3.48,10.11,10.11,0,0,1,5.3.15,5.26,5.26,0,0,1,3.84,4.36c.14.73.13,1.49.2,2.23,0,.29-.07.39-.37.38H46.95c-.49,0-.49,0-.41.49a2.22,2.22,0,0,0,1.58,1.95,2.4,2.4,0,0,0,2.62-.69.74.74,0,0,1,.75-.25c.76.1,1.53.14,2.3.21Zm-9-4h4.6a2.28,2.28,0,0,0-2-2.56C47.6,7.92,46.61,8.89,46.49,10.59Z"/><path d="M76.42,18a7.71,7.71,0,0,1-4.12-1.09,5.75,5.75,0,0,1-2.74-4.36A6.15,6.15,0,0,1,75,5.44a9.17,9.17,0,0,1,4.24.29,5.64,5.64,0,0,1,4.09,4.91,6.29,6.29,0,0,1-1.12,4.8,6.1,6.1,0,0,1-4.08,2.37C77.55,17.91,77,17.93,76.42,18Zm2.35-6.25c0-.44-.05-.81-.12-1.17A2.35,2.35,0,0,0,77.3,8.67a2.17,2.17,0,0,0-3,1.46,5.24,5.24,0,0,0,0,3.07,2.18,2.18,0,0,0,4.26-.13C78.7,12.61,78.72,12.14,78.78,11.73Z"/><path d="M56.07,14.36l2.29-.21,2.26-.22c0,.06.07.11.09.18a2,2,0,0,0,2.22,1.34,3.42,3.42,0,0,0,1.15-.29.89.89,0,0,0,.59-.93.87.87,0,0,0-.72-.79c-.77-.19-1.54-.33-2.31-.51s-1.8-.35-2.66-.63A3.23,3.23,0,0,1,56.6,9.47,3.21,3.21,0,0,1,58.26,6.2,6.16,6.16,0,0,1,61,5.4a18.31,18.31,0,0,1,3.58.05,4.39,4.39,0,0,1,3.87,3.08l-1.12.13-3,.29c-.08,0-.22,0-.25-.1a1.76,1.76,0,0,0-1.8-1.1,2.83,2.83,0,0,0-1,.16.82.82,0,0,0-.61.83.72.72,0,0,0,.64.72c.63.16,1.28.27,1.93.37a14.51,14.51,0,0,1,3.24.69,3.38,3.38,0,0,1,2.29,2.55,3.58,3.58,0,0,1-1.56,3.76,5.9,5.9,0,0,1-3,1,16.55,16.55,0,0,1-4-.06,5.5,5.5,0,0,1-2.61-.93A4.21,4.21,0,0,1,56.07,14.36Z"/></g></g></svg>