<svg xmlns="http://www.w3.org/2000/svg" viewBox="0 0 17.89 17.92"><defs><style>.cls-1{opacity:0.5;}.cls-2{fill:#fff;}</style></defs><title>Recurso 7</title><g id="Capa_2" data-name="Capa 2"><g id="Capa_1-2" data-name="Capa 1"><g class="cls-1"><path class="cls-2" d="M.62,1.77c-.64.81-2.08,4.67,4.09,11,6.5,6.66,10.69,5.23,11.41,4.49l-4.35-4.35c-.61.6-1.39.06-2.89-1.16A22.71,22.71,0,0,1,5.75,8.63c-.69-.87-1.31-1.77-.67-2.41L.62,1.77Z"/><path class="cls-2" d="M17.69,15.7a.69.69,0,0,0,0-1h0l-3.38-3.38a.68.68,0,0,0-1,0L12.1,12.57l4.36,4.36,1.23-1.23Z"/><path class="cls-2" d="M6.64,4.66a.68.68,0,0,0,0-1h0L3.16.2a.68.68,0,0,0-1,0L1,1.43,5.42,5.88,6.64,4.66Z"/></g></g></g></svg>