<svg xmlns="http://www.w3.org/2000/svg" viewBox="0 0 10.81 16.42"><defs><style>.cls-1{fill:#293661;}</style></defs><title>Recurso 13</title><g id="Capa_2" data-name="Capa 2"><g id="Capa_1-2" data-name="Capa 1"><path class="cls-1" d="M5.41,0A5.41,5.41,0,0,0,.86,8.33L5.41,15,10,8.33a5.18,5.18,0,0,0,.86-2.92A5.41,5.41,0,0,0,5.41,0Zm0,2.6a2.8,2.8,0,1,1-2.8,2.8A2.81,2.81,0,0,1,5.41,2.6Zm0,.8a2,2,0,1,0,2,2A2,2,0,0,0,5.41,3.4ZM3.68,13.06C2.68,13.38,2,14,2,14.62c0,1,1.52,1.8,3.4,1.8s3.4-.81,3.4-1.8c0-.66-.67-1.24-1.68-1.55L5.41,15.75Z"/></g></g></svg>