<svg xmlns="http://www.w3.org/2000/svg" viewBox="0 0 27.86 48.46"><defs><style>.cls-1{fill:#b7e5f3;}.cls-1,.cls-2{fill-rule:evenodd;}.cls-2,.cls-3{fill:none;stroke:#01aced;stroke-width:2px;}.cls-2{stroke-miterlimit:10;}.cls-3{stroke-linecap:round;stroke-linejoin:round;}.cls-4{fill:#01aced;}</style></defs><title>Recurso 3_1</title><g id="Capa_2" data-name="Capa 2"><g id="Capa_1-2" data-name="Capa 1"><path class="cls-1" d="M26.57,43c0,3.2-2.1,4.5-4.88,4.5H6c-2.77,0-5-2.6-5-5.8V6.16C1,3,.74,2.67,3.51,2.67l23.23,39c2.51,0,0-38.7,0-35.5Z"/><path class="cls-2" d="M26.74,41.56c0,3.14-2.27,5.9-5,5.9H6c-2.77,0-5-2.76-5-5.9V6.69C1,3.55,3.22,1,6,1h15.7c2.77,0,5,2.55,5,5.69Z"/><line class="cls-3" x1="1" y1="41.81" x2="26.74" y2="41.81"/><line class="cls-3" x1="8.53" y1="6.02" x2="19.21" y2="6.02"/><circle class="cls-4" cx="13.85" cy="44.11" r="1.15"/></g></g></svg>