<svg xmlns="http://www.w3.org/2000/svg" xmlns:xlink="http://www.w3.org/1999/xlink" viewBox="0 0 144.14 34.89"><defs><style>.cls-1{fill:#293661;}.cls-2{fill:#a4a6a8;}.cls-3{fill:url(#linear-gradient);}.cls-4{fill:url(#linear-gradient-2);}.cls-5{fill:url(#linear-gradient-3);}.cls-6{fill:url(#linear-gradient-4);}.cls-7{fill:url(#linear-gradient-5);}.cls-8{fill:#fff;}</style><linearGradient id="linear-gradient" x1="157.96" y1="26.8" x2="54.69" y2="26.8" gradientUnits="userSpaceOnUse"><stop offset="0.01" stop-color="#76c1e8"/><stop offset="0.55" stop-color="#5891bb"/><stop offset="1" stop-color="#293661"/></linearGradient><linearGradient id="linear-gradient-2" x1="38.25" y1="3.75" x2="16.07" y2="25.42" xlink:href="#linear-gradient"/><linearGradient id="linear-gradient-3" x1="37.09" y1="2.56" x2="14.91" y2="24.23" xlink:href="#linear-gradient"/><linearGradient id="linear-gradient-4" x1="42.89" y1="8.5" x2="20.71" y2="30.17" xlink:href="#linear-gradient"/><linearGradient id="linear-gradient-5" x1="50.25" y1="16.03" x2="28.07" y2="37.7" xlink:href="#linear-gradient"/></defs><title>Recurso 11</title><g id="Capa_2" data-name="Capa 2"><g id="Capa_1-2" data-name="Capa 1"><path class="cls-1" d="M52.88,24.5V10.42L55.41,9.3V24.5Z"/><path class="cls-1" d="M63.27,14.11q3.3,0,3.29,4.31V24.5H64V18.42q0-2.28-2-2.28t-2,2.28V24.5H57.44V14.37H60v1.52C60,14.71,61.07,14.11,63.27,14.11Z"/><path class="cls-1" d="M75.18,14.37l-.5,2h-2V24.5H70.11V16.4H68.59l-.51-2h2V11.93q0-3.29,3.14-2.79l1.92.35-.37,2q-2.16-.37-2.16,1v1.93Z"/><path class="cls-1" d="M81.26,24.76q-5.07,0-5.07-5.32t5.07-5.32q5.07,0,5.07,5.32T81.26,24.76Zm2.54-5.32q0-3.29-2.54-3.29t-2.54,3.29q0,3.29,2.54,3.29T83.8,19.44Z"/><path class="cls-1" d="M87.85,24.5V9.3H97l-.91,2H90.39v4.56h4.56l-.87,2H90.39v5Z"/><path class="cls-1" d="M100.87,14.11q4.05,0,4.05,5.32V24.5h-2.53V23.41q-.36,1.14-2.84,1.35Q96,24.76,96,21.37t4.77-3.6a7.31,7.31,0,0,1,1.76.2q-.3-1.93-1.67-1.83A3.43,3.43,0,0,0,98,17.41l-1.42-1.78A5.77,5.77,0,0,1,100.87,14.11Zm-2.54,7q0,1.58,2.1,1.6c1.4,0,2.09-.92,2.07-2.81l-1.33-.15Q98.33,19.59,98.33,21.16Z"/><path class="cls-1" d="M111.51,24.76q-5.07,0-5.07-5.32t5.07-5.32q3.19,0,4,2.33l.24.58-2,1.11-.22-.43a1.89,1.89,0,0,0-1.93-1.57q-2.54,0-2.53,3.29t2.53,3.29a2.15,2.15,0,0,0,1.93-1.57l.22-.42,2,1.11-.24.58A4.07,4.07,0,0,1,111.51,24.76Z"/><path class="cls-1" d="M121.55,16.4v5.06q0,1.32,2.16,1l.38,2-1.93.35Q119,25.26,119,22V16.4h-1.52l-.51-2h2v-3.8l2.54-.5v4.31h2.54l-.51,2Z"/><path class="cls-1" d="M130.16,24.76q-5.06,0-5.06-5.32t5.06-5.32q5.07,0,5.07,5.32T130.16,24.76Zm2.54-5.32q0-3.29-2.54-3.29t-2.54,3.29q0,3.29,2.54,3.29T132.7,19.44Z"/><path class="cls-1" d="M139.29,24.5h-2.54V14.37h2.54v1.52a2.25,2.25,0,0,1,2.22-1.82,4.51,4.51,0,0,1,2.58.68l-.85,1.89a3.5,3.5,0,0,0-1.92-.51c-1.35,0-2,.76-2,2.28Z"/><path class="cls-2" d="M52.83,31.71H56v.4H52.83v2.48h-.42V29.11h3.68v.42H52.83Z"/><path class="cls-2" d="M61.21,30.72v3.86h-.38v-.82a1.81,1.81,0,0,1-1.58.88,2,2,0,0,1,0-4,1.74,1.74,0,0,1,1.58.89v-.84Zm-2,.32a1.61,1.61,0,0,0,0,3.23A1.61,1.61,0,0,0,59.25,31Zm.13-1,.72-1h-.51L59,30v0Z"/><path class="cls-2" d="M63.1,29.11v2.46a1.7,1.7,0,0,1,1.6-.91,2,2,0,0,1,0,4,1.82,1.82,0,0,1-1.61-.92v.85h-.38V29.11Zm0,3.53a1.54,1.54,0,0,0,1.58,1.63,1.62,1.62,0,0,0,0-3.24A1.54,1.54,0,0,0,63.11,32.64Z"/><path class="cls-2" d="M68.49,30.72v.69a1.36,1.36,0,0,1,1.28-.73,1.53,1.53,0,0,1,.83.23l-.17.31a1.22,1.22,0,0,0-.66-.18,1.28,1.28,0,0,0-1.27,1.29v2.25h-.38V30.72Z"/><path class="cls-2" d="M72.26,29.46a.31.31,0,0,1-.62,0A.31.31,0,0,1,72.26,29.46Zm-.51,1.25v3.87h.38V30.71Z"/><path class="cls-2" d="M76.94,34a2,2,0,0,1-1.4.58,1.9,1.9,0,0,1-2-2,1.88,1.88,0,0,1,2-2,2,2,0,0,1,1.4.58l-.25.24A1.63,1.63,0,0,0,75.54,31a1.61,1.61,0,1,0,0,3.22,1.65,1.65,0,0,0,1.15-.47Z"/><path class="cls-2" d="M82,30.72v3.86h-.38v-.82a1.82,1.82,0,0,1-1.58.88,2,2,0,0,1,0-4,1.75,1.75,0,0,1,1.58.89v-.84Zm-3.54,1.93A1.55,1.55,0,0,0,80,34.27,1.61,1.61,0,0,0,80,31,1.54,1.54,0,0,0,78.45,32.65Z"/><path class="cls-2" d="M90,29.11v5.47h-.38v-.85a1.81,1.81,0,0,1-1.61.92,2,2,0,0,1,0-4,1.7,1.7,0,0,1,1.6.91V29.11Zm-3.54,3.54A1.5,1.5,0,0,0,88,34.27,1.62,1.62,0,0,0,88,31,1.5,1.5,0,0,0,86.45,32.65Z"/><path class="cls-2" d="M91.51,32.65a1.94,1.94,0,0,1,2-2,1.8,1.8,0,0,1,1.91,2.17H91.9a1.51,1.51,0,0,0,1.57,1.43,1.8,1.8,0,0,0,1.39-.59l.27.22a2.13,2.13,0,0,1-1.67.74A1.89,1.89,0,0,1,91.51,32.65ZM95,32.5A1.42,1.42,0,0,0,93.47,31,1.54,1.54,0,0,0,91.9,32.5Z"/><path class="cls-2" d="M103.25,30.17a1.75,1.75,0,0,0-1.65-.74c-.64,0-1.66.23-1.66,1.11,0,.69.75.86,1.67,1s2.15.39,2.15,1.57-1.25,1.53-2.16,1.53a2.46,2.46,0,0,1-2.24-1.19l.37-.19a2.15,2.15,0,0,0,1.87,1c.67,0,1.74-.19,1.74-1.16s-.9-1-1.8-1.17-2-.4-2-1.4c0-1.16,1.18-1.52,2.08-1.52a2.1,2.1,0,0,1,2,.93Z"/><path class="cls-2" d="M105.11,32.66a2,2,0,1,1,3.92,0,2,2,0,1,1-3.92,0Zm3.55,0a1.59,1.59,0,1,0-3.17,0,1.59,1.59,0,1,0,3.17,0Z"/><path class="cls-2" d="M110.85,29.11v5.47h-.38V29.11Z"/><path class="cls-2" d="M115.58,34.58v-.69a1.55,1.55,0,0,1-1.38.76,1.61,1.61,0,0,1-1.74-1.71V30.71h.38v2.22a1.24,1.24,0,0,0,1.37,1.34,1.35,1.35,0,0,0,1.35-1.41V30.71H116v3.87Z"/><path class="cls-2" d="M120.68,34a2,2,0,0,1-1.41.58,2,2,0,1,1,0-3.94,2,2,0,0,1,1.41.58l-.25.24a1.64,1.64,0,0,0-1.16-.46,1.61,1.61,0,1,0,0,3.22,1.65,1.65,0,0,0,1.15-.47Z"/><path class="cls-2" d="M122.52,29.46a.31.31,0,0,1-.62,0A.31.31,0,0,1,122.52,29.46Zm-.5,1.25v3.87h.38V30.71Z"/><path class="cls-2" d="M124,32.66a2,2,0,1,1,3.92,0,2,2,0,1,1-3.92,0Zm3.54,0a1.59,1.59,0,1,0-3.17,0,1.59,1.59,0,1,0,3.17,0Z"/><path class="cls-2" d="M129.69,30.72v.69a1.53,1.53,0,0,1,1.37-.76,1.61,1.61,0,0,1,1.74,1.7v2.23h-.38V32.36A1.23,1.23,0,0,0,131.05,31a1.34,1.34,0,0,0-1.35,1.41v2.15h-.38V30.72Z"/><path class="cls-2" d="M134.14,32.65a1.94,1.94,0,0,1,2-2A1.8,1.8,0,0,1,138,32.83h-3.47a1.51,1.51,0,0,0,1.57,1.43,1.81,1.81,0,0,0,1.39-.59l.27.22a2.12,2.12,0,0,1-1.67.74A1.89,1.89,0,0,1,134.14,32.65Zm3.53-.15A1.42,1.42,0,0,0,136.1,31a1.54,1.54,0,0,0-1.57,1.49Z"/><path class="cls-2" d="M142.2,31.42A1.65,1.65,0,0,0,141,31c-.6,0-1.18.22-1.17.71s.69.62,1.17.7c.69.12,1.63.23,1.59,1.13s-.9,1.08-1.59,1.08a2,2,0,0,1-1.69-.78l.28-.25a1.71,1.71,0,0,0,1.41.66c.47,0,1.18-.12,1.2-.73s-.62-.66-1.26-.77-1.49-.27-1.5-1,.75-1.09,1.53-1.08a2,2,0,0,1,1.44.52Z"/><rect class="cls-3" x="51.52" y="26.63" width="92.63" height="0.34"/><path class="cls-4" d="M37.86,34.89H2.6A3.1,3.1,0,0,1,0,31.76c0-1.82,0-13.95,0-14.07V10.64C0,8,1.68,7.78,2.19,7.78A3.58,3.58,0,0,1,4,8.38l9.95,6.42V11.64a.52.52,0,0,1,0-.11V10.09a1.44,1.44,0,0,1,1.43-1.62A2.75,2.75,0,0,1,16.85,9l2.71,1.81,6.1,3.95V10.15a1.45,1.45,0,0,1,1.42-1.62,2.77,2.77,0,0,1,1.46.56l10.41,7a3.83,3.83,0,0,1,1.75,3.14V32A2.93,2.93,0,0,1,40,34,2.79,2.79,0,0,1,37.86,34.89Zm-35-2h35a.72.72,0,0,0,.88-.82s0,0,0-.06V19.2a1.87,1.87,0,0,0-.83-1.47l0,0L27.64,10.86v5.76a1,1,0,0,1-1.52.82L18.48,12.5,15.93,10.8v.84a1,1,0,0,1,0,.11v4.87a1,1,0,0,1-1.52.82L2.91,10a1.71,1.71,0,0,0-.72-.27h0a1.64,1.64,0,0,0-.15.88V17.7c0,.12,0,12.24,0,14.06A1.12,1.12,0,0,0,2.87,32.91Z"/><path class="cls-5" d="M35,12.2A1,1,0,0,1,34.5,12l-4.5-3a1,1,0,0,1-.45-.83v-5a3.24,3.24,0,0,1,6.48,0v8a1,1,0,0,1-.52.87A1,1,0,0,1,35,12.2ZM31.53,7.73l2.53,1.66V3.24a1.26,1.26,0,1,0-2.53,0Z"/><path class="cls-6" d="M40.1,15.56a.75.75,0,0,1-.45-.14l-2.71-1.94a.76.76,0,0,1-.32-.62V10.81a.69.69,0,0,1,0-.12,2.11,2.11,0,0,1,4.21.1v.06h0v4a.76.76,0,0,1-.41.67A.77.77,0,0,1,40.1,15.56Zm-2-3.09,1.19.86V10.87a.6.6,0,0,0-1.19,0v1.63Z"/><path class="cls-7" d="M43.59,28.39H35.94a.67.67,0,0,1-.58-1l3.83-6.63a.67.67,0,0,1,1.16,0l3.8,6.58a.67.67,0,0,1-.55,1.06ZM37.11,27h5.32l-2.66-4.61Z"/><path class="cls-8" d="M37.11,27h5.32l-2.66-4.61Z"/></g></g></svg>